# xmcd
#
# Track frame offsets: 
#        150
#        14810
#        28965
#        48925
#        61685
#        73988
#        83560
#        92200
#        103060
#        112712
#        127273
#        137923
#        152073
#        167173
#        182182
#        197712
#        212243
#
# Disc length: 3022 seconds
#
# Revision: 0
# Processed by: cddbd v1.4PL0 Copyright (c) Steve Scherf et al.
# Submitted via: ExactAudioCopy v0.90a11
#
DISCID=fa0bcc11
DTITLE=Ron Sluga - Something Special
DYEAR=1900
DGENRE=
TTITLE0=Hot Tamale
TTITLE1=Blue Eyes Crying in the rain
TTITLE2=You're Something special
TTITLE3=Think of me
TTITLE4=Just Because
TTITLE5=Mandolina Waltz
TTITLE6=Tico Tico
TTITLE7=Hello My Baby
TTITLE8=Kiss Me Darling
TTITLE9=Amore Mio
TTITLE10=Croatian Home Polka
TTITLE11=Oliva
TTITLE12=Smile Polka
TTITLE13=It Is No Secret
TTITLE14=Al Johnson Medley
TTITLE15=Petite Waltz
TTITLE16=Dance This Last Dance Polka
EXTD=
EXTT0=
EXTT1=
EXTT2=
EXTT3=
EXTT4=
EXTT5=
EXTT6=
EXTT7=
EXTT8=
EXTT9=
EXTT10=
EXTT11=
EXTT12=
EXTT13=
EXTT14=
EXTT15=
EXTT16=
PLAYORDER=
